<?xml version="1.0" encoding="UTF-8" standalone="no"?>
<!-- Created with Inkscape (http://www.inkscape.org/) -->

<svg
   width="38.533081mm"
   height="40.892368mm"
   viewBox="0 0 38.533081 40.892368"
   version="1.1"
   id="svg1"
   xml:space="preserve"
   inkscape:export-filename="banner2.png"
   inkscape:export-xdpi="96"
   inkscape:export-ydpi="96"
   xmlns:inkscape="http://www.inkscape.org/namespaces/inkscape"
   xmlns:sodipodi="http://sodipodi.sourceforge.net/DTD/sodipodi-0.dtd"
   xmlns="http://www.w3.org/2000/svg"
   xmlns:svg="http://www.w3.org/2000/svg"><sodipodi:namedview
     id="namedview1"
     pagecolor="#ffffff"
     bordercolor="#000000"
     borderopacity="0.25"
     inkscape:showpageshadow="2"
     inkscape:pageopacity="0.0"
     inkscape:pagecheckerboard="0"
     inkscape:deskcolor="#d1d1d1"
     inkscape:document-units="mm" /><defs
     id="defs1"><clipPath
       clipPathUnits="userSpaceOnUse"
       id="clipPath2-5"><path
         d="M 0,1024 H 1280 V 0 H 0 Z"
         transform="translate(-397.24461,-575.50982)"
         id="path2-6" /></clipPath><clipPath
       clipPathUnits="userSpaceOnUse"
       id="clipPath4-2"><path
         d="M 0,1024 H 1280 V 0 H 0 Z"
         transform="translate(-382.43461,-502.35842)"
         id="path4-9" /></clipPath><clipPath
       clipPathUnits="userSpaceOnUse"
       id="clipPath6-1"><path
         d="M 0,1024 H 1280 V 0 H 0 Z"
         transform="translate(-361.72661,-533.71832)"
         id="path6-2" /></clipPath><clipPath
       clipPathUnits="userSpaceOnUse"
       id="clipPath8-7"><path
         d="M 0,1024 H 1280 V 0 H 0 Z"
         transform="translate(-343.99561,-515.88431)"
         id="path8-0" /></clipPath><clipPath
       clipPathUnits="userSpaceOnUse"
       id="clipPath10-9"><path
         d="M 0,1024 H 1280 V 0 H 0 Z"
         transform="translate(-453.24801,-514.90622)"
         id="path10-3" /></clipPath><clipPath
       clipPathUnits="userSpaceOnUse"
       id="clipPath12-6"><path
         d="M 0,1024 H 1280 V 0 H 0 Z"
         transform="translate(-432.69871,-533.81151)"
         id="path12-0" /></clipPath><clipPath
       clipPathUnits="userSpaceOnUse"
       id="clipPath14-6"><path
         d="M 0,1024 H 1280 V 0 H 0 Z"
         transform="translate(-379.49171,-552.88382)"
         id="path14-2" /></clipPath><clipPath
       clipPathUnits="userSpaceOnUse"
       id="clipPath16-6"><path
         d="M 0,1024 H 1280 V 0 H 0 Z"
         transform="translate(-414.95901,-512.92922)"
         id="path16-1" /></clipPath><clipPath
       clipPathUnits="userSpaceOnUse"
       id="clipPath18-8"><path
         d="M 0,1024 H 1280 V 0 H 0 Z"
         transform="translate(-414.95511,-553.00341)"
         id="path18-7" /></clipPath></defs><g
     inkscape:label="Layer 1"
     inkscape:groupmode="layer"
     id="layer1"
     transform="translate(-157.89063,77.300934)"><g
       id="layer-MC0-8"
       inkscape:label="Layer 1"
       transform="matrix(0.25259877,0,0,0.25259877,43.379192,-228.3517)"
       style="fill:#ffffff;fill-opacity:1"
       inkscape:export-filename="bara_logo_vit.png"
       inkscape:export-xdpi="96"
       inkscape:export-ydpi="96"><path
         id="path1-4"
         d="m 0,0 c -2.992,0 -5.773,-1.38 -7.631,-3.787 -2.615,-3.387 -2.699,-8.173 -0.207,-11.639 0.995,-1.381 2.262,-2.435 3.767,-3.134 1.216,-0.563 2,-1.811 1.999,-3.18 l -0.026,-20.362 c -0.001,-1.257 -0.64,-2.408 -1.667,-3.004 -0.805,-0.467 -1.512,-1.082 -2.101,-1.831 -2.092,-2.652 -2.097,-6.501 -0.015,-9.151 0.589,-0.749 1.297,-1.366 2.104,-1.833 1.024,-0.591 1.658,-1.74 1.657,-2.997 l -0.022,-17.509 c -10e-4,-1.113 -0.434,-2.108 -1.188,-2.73 -0.367,-0.304 -0.691,-0.66 -0.966,-1.062 -1.159,-1.695 -1.165,-3.972 -0.015,-5.669 0.274,-0.404 0.6,-0.763 0.967,-1.068 0.755,-0.623 1.187,-1.624 1.186,-2.745 l -0.025,-20.638 c -0.001,-1.024 -0.537,-1.835 -0.986,-2.335 -0.189,-0.21 -0.358,-0.442 -0.503,-0.693 -0.792,-1.374 -0.697,-3.148 0.235,-4.412 0.767,-1.04 1.935,-1.636 3.207,-1.636 h 0.001 c 1.164,0 2.27,0.515 3.034,1.41 0.948,1.114 1.202,2.746 0.646,4.157 -0.178,0.452 -0.424,0.854 -0.732,1.197 -0.58,0.64 -0.9,1.477 -0.898,2.356 l 0.025,20.675 c 0.002,1.097 0.425,2.081 1.159,2.699 0.358,0.301 0.676,0.656 0.944,1.055 1.13,1.678 1.136,3.933 0.016,5.615 -0.267,0.402 -0.586,0.759 -0.945,1.063 -0.737,0.621 -1.159,1.61 -1.158,2.712 l 0.022,17.602 c 0.002,1.248 0.632,2.395 1.647,2.993 0.957,0.563 1.765,1.33 2.402,2.279 1.649,2.457 1.651,5.756 0.004,8.208 -0.635,0.944 -1.439,1.707 -2.391,2.267 -1.012,0.595 -1.641,1.739 -1.639,2.986 l 0.024,20.371 c 0.002,1.379 0.798,2.634 2.028,3.198 1.52,0.697 2.801,1.755 3.807,3.144 2.517,3.476 2.448,8.271 -0.168,11.661 C 5.751,-1.373 2.981,0 0,0"
         style="fill:#ffffff;fill-opacity:1;fill-rule:nonzero;stroke:none"
         transform="matrix(1.3333333,0,0,-1.3333333,529.65947,597.98693)"
         clip-path="url(#clipPath2-5)" /><path
         id="path3-5"
         d="M 0,0 C 0.367,0.229 0.711,0.505 1.023,0.819 2.101,1.91 2.689,3.36 2.679,4.901 2.668,6.437 2.063,7.872 0.975,8.943 -0.065,9.966 -1.46,10.53 -2.955,10.53 -4.454,10.53 -5.854,9.964 -6.899,8.936 -7.994,7.859 -8.604,6.418 -8.614,4.877 -8.625,3.341 -8.04,1.896 -6.966,0.811 c 0.31,-0.314 0.654,-0.588 1.021,-0.818 0.813,-0.508 1.299,-1.366 1.298,-2.295 l -0.025,-20.682 c -0.001,-0.75 -0.307,-1.46 -0.841,-1.947 -0.52,-0.475 -0.905,-1.084 -1.143,-1.809 -0.304,-0.924 -0.247,-1.949 0.155,-2.814 0.689,-1.476 2.089,-2.393 3.655,-2.393 1.255,0 2.416,0.583 3.186,1.598 0.952,1.256 1.072,3.033 0.296,4.421 -0.272,0.485 -0.625,0.894 -1.049,1.216 -0.575,0.44 -0.919,1.204 -0.917,2.045 L -1.305,-2.3 C -1.304,-1.371 -0.816,-0.511 0,0"
         style="fill:#ffffff;fill-opacity:1;fill-rule:nonzero;stroke:none"
         transform="matrix(1.3333333,0,0,-1.3333333,509.9128,695.52213)"
         clip-path="url(#clipPath4-2)" /><path
         id="path5-0"
         d="m 0,0 c -1.499,0 -2.9,-0.566 -3.945,-1.595 -1.094,-1.076 -1.703,-2.517 -1.714,-4.058 -0.01,-1.536 0.575,-2.98 1.648,-4.065 0.457,-0.463 0.982,-0.839 1.562,-1.117 0.468,-0.225 0.759,-0.684 0.759,-1.199 l -0.027,-24.024 c -10e-4,-0.483 -0.215,-0.924 -0.558,-1.154 -0.56,-0.372 -1.002,-0.876 -1.316,-1.498 -0.712,-1.415 -0.555,-3.117 0.4,-4.334 0.765,-0.977 1.906,-1.536 3.131,-1.536 v 0 c 1.235,0 2.385,0.568 3.153,1.556 0.953,1.226 1.107,2.927 0.392,4.335 -0.313,0.614 -0.753,1.114 -1.309,1.483 -0.341,0.228 -0.551,0.665 -0.551,1.144 l 0.026,24.029 c 0,0.517 0.293,0.978 0.763,1.204 0.58,0.28 1.107,0.656 1.564,1.119 1.078,1.091 1.667,2.541 1.656,4.082 -0.01,1.536 -0.616,2.972 -1.705,4.043 C 2.89,-0.563 1.494,0 0,0"
         style="fill:#ffffff;fill-opacity:1;fill-rule:nonzero;stroke:none"
         transform="matrix(1.3333333,0,0,-1.3333333,482.30213,653.70893)"
         clip-path="url(#clipPath6-1)" /><path
         id="path7-3"
         d="m 0,0 c -1.068,0 -2.073,-0.421 -2.828,-1.185 -1.555,-1.572 -1.557,-4.128 -0.005,-5.698 0.751,-0.76 1.752,-1.179 2.817,-1.179 1.069,0 2.073,0.421 2.829,1.186 1.553,1.572 1.556,4.127 0.005,5.697 C 2.066,-0.418 1.065,0 0,0"
         style="fill:#ffffff;fill-opacity:1;fill-rule:nonzero;stroke:none"
         transform="matrix(1.3333333,0,0,-1.3333333,458.6608,677.4876)"
         clip-path="url(#clipPath8-7)" /><path
         id="path9-6"
         d="m 0,0 c -0.752,0.761 -1.753,1.18 -2.818,1.18 -1.068,0 -2.073,-0.421 -2.828,-1.185 -1.555,-1.573 -1.557,-4.129 -0.006,-5.698 0.752,-0.761 1.753,-1.179 2.818,-1.179 v 0 c 1.068,0 2.073,0.42 2.829,1.186 C 1.549,-4.124 1.551,-1.568 0,0"
         style="fill:#ffffff;fill-opacity:1;fill-rule:nonzero;stroke:none"
         transform="matrix(1.3333333,0,0,-1.3333333,604.33067,678.79173)"
         clip-path="url(#clipPath10-9)" /><path
         id="path11-1"
         d="m 0,0 c -1.499,0 -2.9,-0.567 -3.945,-1.595 -1.095,-1.077 -1.703,-2.517 -1.714,-4.058 -0.011,-1.536 0.574,-2.98 1.648,-4.067 0.458,-0.462 0.984,-0.838 1.562,-1.115 0.468,-0.225 0.759,-0.685 0.759,-1.199 L -1.717,-36.06 c -10e-4,-0.481 -0.215,-0.922 -0.559,-1.152 -0.559,-0.373 -1.001,-0.877 -1.315,-1.499 -0.712,-1.415 -0.555,-3.115 0.4,-4.334 0.764,-0.976 1.906,-1.535 3.13,-1.535 1.235,0 2.385,0.567 3.154,1.556 0.953,1.225 1.106,2.926 0.392,4.335 -0.313,0.615 -0.754,1.114 -1.309,1.483 -0.341,0.227 -0.551,0.665 -0.551,1.143 l 0.026,24.03 c 0,0.516 0.292,0.977 0.763,1.204 0.58,0.279 1.107,0.656 1.564,1.119 1.078,1.091 1.667,2.541 1.656,4.082 -0.01,1.536 -0.616,2.972 -1.705,4.043 C 2.89,-0.563 1.494,0 0,0"
         style="fill:#ffffff;fill-opacity:1;fill-rule:nonzero;stroke:none"
         transform="matrix(1.3333333,0,0,-1.3333333,576.9316,653.58467)"
         clip-path="url(#clipPath12-6)" /><path
         id="path13-0"
         d="m 0,0 c -2.132,0 -4.137,-0.841 -5.646,-2.366 -3.106,-3.143 -3.112,-8.25 -0.013,-11.385 1.501,-1.518 3.497,-2.353 5.623,-2.353 2.131,0 4.137,0.839 5.645,2.365 3.107,3.143 3.113,8.25 0.014,11.386 C 4.122,-0.835 2.125,0 0,0"
         style="fill:#ffffff;fill-opacity:1;fill-rule:nonzero;stroke:none"
         transform="matrix(1.3333333,0,0,-1.3333333,505.98893,628.15493)"
         clip-path="url(#clipPath14-6)" /><path
         id="path15-6"
         d="m 0,0 c -1.499,0 -2.899,-0.566 -3.945,-1.594 -1.095,-1.076 -1.703,-2.518 -1.714,-4.059 -0.011,-1.536 0.574,-2.98 1.647,-4.066 0.306,-0.311 0.65,-0.586 1.021,-0.818 0.814,-0.508 1.299,-1.367 1.298,-2.295 l -0.025,-20.393 c -0.002,-0.84 -0.345,-1.606 -0.921,-2.048 -0.424,-0.326 -0.775,-0.739 -1.046,-1.227 -0.769,-1.389 -0.648,-3.162 0.301,-4.411 0.765,-1.006 1.92,-1.584 3.169,-1.584 1.238,0 2.389,0.571 3.158,1.563 0.994,1.283 1.108,3.099 0.286,4.519 -0.207,0.357 -0.463,0.676 -0.762,0.947 -0.536,0.487 -0.844,1.199 -0.844,1.952 l 0.026,20.683 c 10e-4,0.929 0.489,1.789 1.306,2.3 0.369,0.232 0.713,0.508 1.023,0.821 1.078,1.091 1.666,2.541 1.656,4.081 C 5.623,-4.093 5.018,-2.658 3.929,-1.586 2.889,-0.564 1.494,0 0,0"
         style="fill:#ffffff;fill-opacity:1;fill-rule:nonzero;stroke:none"
         transform="matrix(1.3333333,0,0,-1.3333333,553.27867,681.42773)"
         clip-path="url(#clipPath16-6)" /><path
         id="path17-3"
         d="m 0,0 c -2.132,0 -4.137,-0.84 -5.646,-2.366 -3.106,-3.142 -3.111,-8.25 -0.013,-11.384 1.501,-1.519 3.498,-2.354 5.623,-2.354 2.132,0 4.137,0.84 5.646,2.366 3.106,3.142 3.112,8.25 0.013,11.385 C 4.122,-0.835 2.125,0 0,0"
         style="fill:#ffffff;fill-opacity:1;fill-rule:nonzero;stroke:none"
         transform="matrix(1.3333333,0,0,-1.3333333,553.27347,627.99547)"
         clip-path="url(#clipPath18-8)" /></g></g></svg>
