<?xml version="1.0" encoding="UTF-8" standalone="no"?>
<!-- Created with Inkscape (http://www.inkscape.org/) -->

<svg
   width="85.478073mm"
   height="17.3172mm"
   viewBox="0 0 85.478073 17.3172"
   version="1.1"
   id="svg1"
   xml:space="preserve"
   inkscape:export-filename="banner2.png"
   inkscape:export-xdpi="96"
   inkscape:export-ydpi="96"
   xmlns:inkscape="http://www.inkscape.org/namespaces/inkscape"
   xmlns:sodipodi="http://sodipodi.sourceforge.net/DTD/sodipodi-0.dtd"
   xmlns="http://www.w3.org/2000/svg"
   xmlns:svg="http://www.w3.org/2000/svg"><sodipodi:namedview
     id="namedview1"
     pagecolor="#ffffff"
     bordercolor="#000000"
     borderopacity="0.25"
     inkscape:showpageshadow="2"
     inkscape:pageopacity="0.0"
     inkscape:pagecheckerboard="0"
     inkscape:deskcolor="#d1d1d1"
     inkscape:document-units="mm" /><defs
     id="defs1"><clipPath
       clipPathUnits="userSpaceOnUse"
       id="clipPath2"><path
         d="M 0,1024 H 1280 V 0 H 0 Z"
         transform="translate(-397.24461,-575.50982)"
         id="path2" /></clipPath><clipPath
       clipPathUnits="userSpaceOnUse"
       id="clipPath4"><path
         d="M 0,1024 H 1280 V 0 H 0 Z"
         transform="translate(-382.43461,-502.35842)"
         id="path4" /></clipPath><clipPath
       clipPathUnits="userSpaceOnUse"
       id="clipPath6"><path
         d="M 0,1024 H 1280 V 0 H 0 Z"
         transform="translate(-361.72661,-533.71832)"
         id="path6" /></clipPath><clipPath
       clipPathUnits="userSpaceOnUse"
       id="clipPath8"><path
         d="M 0,1024 H 1280 V 0 H 0 Z"
         transform="translate(-343.99561,-515.88431)"
         id="path8" /></clipPath><clipPath
       clipPathUnits="userSpaceOnUse"
       id="clipPath10"><path
         d="M 0,1024 H 1280 V 0 H 0 Z"
         transform="translate(-453.24801,-514.90622)"
         id="path10" /></clipPath><clipPath
       clipPathUnits="userSpaceOnUse"
       id="clipPath12"><path
         d="M 0,1024 H 1280 V 0 H 0 Z"
         transform="translate(-432.69871,-533.81151)"
         id="path12" /></clipPath><clipPath
       clipPathUnits="userSpaceOnUse"
       id="clipPath14"><path
         d="M 0,1024 H 1280 V 0 H 0 Z"
         transform="translate(-379.49171,-552.88382)"
         id="path14" /></clipPath><clipPath
       clipPathUnits="userSpaceOnUse"
       id="clipPath16"><path
         d="M 0,1024 H 1280 V 0 H 0 Z"
         transform="translate(-414.95901,-512.92922)"
         id="path16" /></clipPath><clipPath
       clipPathUnits="userSpaceOnUse"
       id="clipPath18"><path
         d="M 0,1024 H 1280 V 0 H 0 Z"
         transform="translate(-414.95511,-553.00341)"
         id="path18" /></clipPath><clipPath
       clipPathUnits="userSpaceOnUse"
       id="clipPath48"><path
         d="M 0,1024 H 1280 V 0 H 0 Z"
         transform="translate(-491.61621,-497.65721)"
         id="path48" /></clipPath><clipPath
       clipPathUnits="userSpaceOnUse"
       id="clipPath50"><path
         d="M 0,1024 H 1280 V 0 H 0 Z"
         transform="translate(0,-2.5000001e-5)"
         id="path50" /></clipPath><clipPath
       clipPathUnits="userSpaceOnUse"
       id="clipPath52"><path
         d="M 0,1024 H 1280 V 0 H 0 Z"
         transform="translate(-570.00241,-497.65721)"
         id="path52" /></clipPath><clipPath
       clipPathUnits="userSpaceOnUse"
       id="clipPath54"><path
         d="M 0,1024 H 1280 V 0 H 0 Z"
         transform="translate(-625.46921,-497.75591)"
         id="path54" /></clipPath><clipPath
       clipPathUnits="userSpaceOnUse"
       id="clipPath56"><path
         d="M 0,1024 H 1280 V 0 H 0 Z"
         transform="translate(-666.85162,-535.60841)"
         id="path56" /></clipPath><clipPath
       clipPathUnits="userSpaceOnUse"
       id="clipPath58"><path
         d="M 0,1024 H 1280 V 0 H 0 Z"
         transform="translate(0,-2.5000001e-5)"
         id="path58" /></clipPath><clipPath
       clipPathUnits="userSpaceOnUse"
       id="clipPath60"><path
         d="M 0,1024 H 1280 V 0 H 0 Z"
         transform="translate(-697.41311,-554.08941)"
         id="path60" /></clipPath><clipPath
       clipPathUnits="userSpaceOnUse"
       id="clipPath62"><path
         d="M 0,1024 H 1280 V 0 H 0 Z"
         transform="translate(-734.91502,-498.44821)"
         id="path62" /></clipPath><clipPath
       clipPathUnits="userSpaceOnUse"
       id="clipPath64"><path
         d="M 0,1024 H 1280 V 0 H 0 Z"
         transform="translate(-773.61039,-536.49761)"
         id="path64" /></clipPath><clipPath
       clipPathUnits="userSpaceOnUse"
       id="clipPath66"><path
         d="M 0,1024 H 1280 V 0 H 0 Z"
         transform="translate(-862.00592,-536.49761)"
         id="path66" /></clipPath><clipPath
       clipPathUnits="userSpaceOnUse"
       id="clipPath68"><path
         d="M 0,1024 H 1280 V 0 H 0 Z"
         transform="translate(-915.502,-497.65721)"
         id="path68" /></clipPath></defs><g
     inkscape:label="Layer 1"
     inkscape:groupmode="layer"
     id="layer1"
     transform="translate(-118.41088,-6.5663629)"><g
       id="layer-MC0"
       inkscape:label="Layer 1"
       transform="matrix(0.10697114,0,0,0.10697114,69.917286,-57.400981)"
       style="fill:#ffffff;fill-opacity:1"
       inkscape:export-filename="logo_mörk.png"
       inkscape:export-xdpi="96"
       inkscape:export-ydpi="96"><path
         id="path1"
         d="m 0,0 c -2.992,0 -5.773,-1.38 -7.631,-3.787 -2.615,-3.387 -2.699,-8.173 -0.207,-11.639 0.995,-1.381 2.262,-2.435 3.767,-3.134 1.216,-0.563 2,-1.811 1.999,-3.18 l -0.026,-20.362 c -0.001,-1.257 -0.64,-2.408 -1.667,-3.004 -0.805,-0.467 -1.512,-1.082 -2.101,-1.831 -2.092,-2.652 -2.097,-6.501 -0.015,-9.151 0.589,-0.749 1.297,-1.366 2.104,-1.833 1.024,-0.591 1.658,-1.74 1.657,-2.997 l -0.022,-17.509 c -10e-4,-1.113 -0.434,-2.108 -1.188,-2.73 -0.367,-0.304 -0.691,-0.66 -0.966,-1.062 -1.159,-1.695 -1.165,-3.972 -0.015,-5.669 0.274,-0.404 0.6,-0.763 0.967,-1.068 0.755,-0.623 1.187,-1.624 1.186,-2.745 l -0.025,-20.638 c -0.001,-1.024 -0.537,-1.835 -0.986,-2.335 -0.189,-0.21 -0.358,-0.442 -0.503,-0.693 -0.792,-1.374 -0.697,-3.148 0.235,-4.412 0.767,-1.04 1.935,-1.636 3.207,-1.636 h 0.001 c 1.164,0 2.27,0.515 3.034,1.41 0.948,1.114 1.202,2.746 0.646,4.157 -0.178,0.452 -0.424,0.854 -0.732,1.197 -0.58,0.64 -0.9,1.477 -0.898,2.356 l 0.025,20.675 c 0.002,1.097 0.425,2.081 1.159,2.699 0.358,0.301 0.676,0.656 0.944,1.055 1.13,1.678 1.136,3.933 0.016,5.615 -0.267,0.402 -0.586,0.759 -0.945,1.063 -0.737,0.621 -1.159,1.61 -1.158,2.712 l 0.022,17.602 c 0.002,1.248 0.632,2.395 1.647,2.993 0.957,0.563 1.765,1.33 2.402,2.279 1.649,2.457 1.651,5.756 0.004,8.208 -0.635,0.944 -1.439,1.707 -2.391,2.267 -1.012,0.595 -1.641,1.739 -1.639,2.986 l 0.024,20.371 c 0.002,1.379 0.798,2.634 2.028,3.198 1.52,0.697 2.801,1.755 3.807,3.144 2.517,3.476 2.448,8.271 -0.168,11.661 C 5.751,-1.373 2.981,0 0,0"
         style="fill:#ffffff;fill-opacity:1;fill-rule:nonzero;stroke:none"
         transform="matrix(1.3333333,0,0,-1.3333333,529.65947,597.98693)"
         clip-path="url(#clipPath2)" /><path
         id="path3"
         d="M 0,0 C 0.367,0.229 0.711,0.505 1.023,0.819 2.101,1.91 2.689,3.36 2.679,4.901 2.668,6.437 2.063,7.872 0.975,8.943 -0.065,9.966 -1.46,10.53 -2.955,10.53 -4.454,10.53 -5.854,9.964 -6.899,8.936 -7.994,7.859 -8.604,6.418 -8.614,4.877 -8.625,3.341 -8.04,1.896 -6.966,0.811 c 0.31,-0.314 0.654,-0.588 1.021,-0.818 0.813,-0.508 1.299,-1.366 1.298,-2.295 l -0.025,-20.682 c -0.001,-0.75 -0.307,-1.46 -0.841,-1.947 -0.52,-0.475 -0.905,-1.084 -1.143,-1.809 -0.304,-0.924 -0.247,-1.949 0.155,-2.814 0.689,-1.476 2.089,-2.393 3.655,-2.393 1.255,0 2.416,0.583 3.186,1.598 0.952,1.256 1.072,3.033 0.296,4.421 -0.272,0.485 -0.625,0.894 -1.049,1.216 -0.575,0.44 -0.919,1.204 -0.917,2.045 L -1.305,-2.3 C -1.304,-1.371 -0.816,-0.511 0,0"
         style="fill:#ffffff;fill-opacity:1;fill-rule:nonzero;stroke:none"
         transform="matrix(1.3333333,0,0,-1.3333333,509.9128,695.52213)"
         clip-path="url(#clipPath4)" /><path
         id="path5"
         d="m 0,0 c -1.499,0 -2.9,-0.566 -3.945,-1.595 -1.094,-1.076 -1.703,-2.517 -1.714,-4.058 -0.01,-1.536 0.575,-2.98 1.648,-4.065 0.457,-0.463 0.982,-0.839 1.562,-1.117 0.468,-0.225 0.759,-0.684 0.759,-1.199 l -0.027,-24.024 c -10e-4,-0.483 -0.215,-0.924 -0.558,-1.154 -0.56,-0.372 -1.002,-0.876 -1.316,-1.498 -0.712,-1.415 -0.555,-3.117 0.4,-4.334 0.765,-0.977 1.906,-1.536 3.131,-1.536 v 0 c 1.235,0 2.385,0.568 3.153,1.556 0.953,1.226 1.107,2.927 0.392,4.335 -0.313,0.614 -0.753,1.114 -1.309,1.483 -0.341,0.228 -0.551,0.665 -0.551,1.144 l 0.026,24.029 c 0,0.517 0.293,0.978 0.763,1.204 0.58,0.28 1.107,0.656 1.564,1.119 1.078,1.091 1.667,2.541 1.656,4.082 -0.01,1.536 -0.616,2.972 -1.705,4.043 C 2.89,-0.563 1.494,0 0,0"
         style="fill:#ffffff;fill-opacity:1;fill-rule:nonzero;stroke:none"
         transform="matrix(1.3333333,0,0,-1.3333333,482.30213,653.70893)"
         clip-path="url(#clipPath6)" /><path
         id="path7"
         d="m 0,0 c -1.068,0 -2.073,-0.421 -2.828,-1.185 -1.555,-1.572 -1.557,-4.128 -0.005,-5.698 0.751,-0.76 1.752,-1.179 2.817,-1.179 1.069,0 2.073,0.421 2.829,1.186 1.553,1.572 1.556,4.127 0.005,5.697 C 2.066,-0.418 1.065,0 0,0"
         style="fill:#ffffff;fill-opacity:1;fill-rule:nonzero;stroke:none"
         transform="matrix(1.3333333,0,0,-1.3333333,458.6608,677.4876)"
         clip-path="url(#clipPath8)" /><path
         id="path9"
         d="m 0,0 c -0.752,0.761 -1.753,1.18 -2.818,1.18 -1.068,0 -2.073,-0.421 -2.828,-1.185 -1.555,-1.573 -1.557,-4.129 -0.006,-5.698 0.752,-0.761 1.753,-1.179 2.818,-1.179 v 0 c 1.068,0 2.073,0.42 2.829,1.186 C 1.549,-4.124 1.551,-1.568 0,0"
         style="fill:#ffffff;fill-opacity:1;fill-rule:nonzero;stroke:none"
         transform="matrix(1.3333333,0,0,-1.3333333,604.33067,678.79173)"
         clip-path="url(#clipPath10)" /><path
         id="path11"
         d="m 0,0 c -1.499,0 -2.9,-0.567 -3.945,-1.595 -1.095,-1.077 -1.703,-2.517 -1.714,-4.058 -0.011,-1.536 0.574,-2.98 1.648,-4.067 0.458,-0.462 0.984,-0.838 1.562,-1.115 0.468,-0.225 0.759,-0.685 0.759,-1.199 L -1.717,-36.06 c -10e-4,-0.481 -0.215,-0.922 -0.559,-1.152 -0.559,-0.373 -1.001,-0.877 -1.315,-1.499 -0.712,-1.415 -0.555,-3.115 0.4,-4.334 0.764,-0.976 1.906,-1.535 3.13,-1.535 1.235,0 2.385,0.567 3.154,1.556 0.953,1.225 1.106,2.926 0.392,4.335 -0.313,0.615 -0.754,1.114 -1.309,1.483 -0.341,0.227 -0.551,0.665 -0.551,1.143 l 0.026,24.03 c 0,0.516 0.292,0.977 0.763,1.204 0.58,0.279 1.107,0.656 1.564,1.119 1.078,1.091 1.667,2.541 1.656,4.082 -0.01,1.536 -0.616,2.972 -1.705,4.043 C 2.89,-0.563 1.494,0 0,0"
         style="fill:#ffffff;fill-opacity:1;fill-rule:nonzero;stroke:none"
         transform="matrix(1.3333333,0,0,-1.3333333,576.9316,653.58467)"
         clip-path="url(#clipPath12)" /><path
         id="path13"
         d="m 0,0 c -2.132,0 -4.137,-0.841 -5.646,-2.366 -3.106,-3.143 -3.112,-8.25 -0.013,-11.385 1.501,-1.518 3.497,-2.353 5.623,-2.353 2.131,0 4.137,0.839 5.645,2.365 3.107,3.143 3.113,8.25 0.014,11.386 C 4.122,-0.835 2.125,0 0,0"
         style="fill:#ffffff;fill-opacity:1;fill-rule:nonzero;stroke:none"
         transform="matrix(1.3333333,0,0,-1.3333333,505.98893,628.15493)"
         clip-path="url(#clipPath14)" /><path
         id="path15"
         d="m 0,0 c -1.499,0 -2.899,-0.566 -3.945,-1.594 -1.095,-1.076 -1.703,-2.518 -1.714,-4.059 -0.011,-1.536 0.574,-2.98 1.647,-4.066 0.306,-0.311 0.65,-0.586 1.021,-0.818 0.814,-0.508 1.299,-1.367 1.298,-2.295 l -0.025,-20.393 c -0.002,-0.84 -0.345,-1.606 -0.921,-2.048 -0.424,-0.326 -0.775,-0.739 -1.046,-1.227 -0.769,-1.389 -0.648,-3.162 0.301,-4.411 0.765,-1.006 1.92,-1.584 3.169,-1.584 1.238,0 2.389,0.571 3.158,1.563 0.994,1.283 1.108,3.099 0.286,4.519 -0.207,0.357 -0.463,0.676 -0.762,0.947 -0.536,0.487 -0.844,1.199 -0.844,1.952 l 0.026,20.683 c 10e-4,0.929 0.489,1.789 1.306,2.3 0.369,0.232 0.713,0.508 1.023,0.821 1.078,1.091 1.666,2.541 1.656,4.081 C 5.623,-4.093 5.018,-2.658 3.929,-1.586 2.889,-0.564 1.494,0 0,0"
         style="fill:#ffffff;fill-opacity:1;fill-rule:nonzero;stroke:none"
         transform="matrix(1.3333333,0,0,-1.3333333,553.27867,681.42773)"
         clip-path="url(#clipPath16)" /><path
         id="path17"
         d="m 0,0 c -2.132,0 -4.137,-0.84 -5.646,-2.366 -3.106,-3.142 -3.111,-8.25 -0.013,-11.384 1.501,-1.519 3.498,-2.354 5.623,-2.354 2.132,0 4.137,0.84 5.646,2.366 3.106,3.142 3.112,8.25 0.013,11.385 C 4.122,-0.835 2.125,0 0,0"
         style="fill:#ffffff;fill-opacity:1;fill-rule:nonzero;stroke:none"
         transform="matrix(1.3333333,0,0,-1.3333333,553.27347,627.99547)"
         clip-path="url(#clipPath18)" /><path
         id="path47"
         d="m 0,0 c -8.431,0 -15.274,6.918 -15.274,15.319 0,8.4 6.843,15.319 15.274,15.319 8.431,0 15.274,-6.919 15.274,-15.319 C 15.274,6.918 8.431,0 0,0 M 15.274,32.713 C 11.01,36.271 5.653,38.939 0,38.939 c -6.348,0 -12.299,-2.372 -16.861,-6.819 -4.464,-4.546 -6.944,-10.476 -6.944,-16.801 0,-6.325 2.48,-12.255 6.944,-16.801 4.562,-4.448 10.513,-6.82 16.861,-6.82 5.653,0 11.01,2.669 15.274,6.227 v -5.238 h 8.53 v 45.264 h -8.53 z"
         style="fill:#ffffff;fill-opacity:1;fill-rule:nonzero;stroke:none"
         transform="matrix(1.3333333,0,0,-1.3333333,655.48827,701.7904)"
         clip-path="url(#clipPath48)" /><path
         id="path49"
         d="m 528.039,490.344 h 8.53 v 72.542 h -8.53 z"
         style="fill:#ffffff;fill-opacity:1;fill-rule:nonzero;stroke:none"
         transform="matrix(1.3333333,0,0,-1.3333333,0,1365.3333)"
         clip-path="url(#clipPath50)" /><path
         id="path51"
         d="m 0,0 c -8.431,0 -15.275,6.918 -15.275,15.319 0,8.4 6.844,15.319 15.275,15.319 8.431,0 15.274,-6.919 15.274,-15.319 C 15.274,6.918 8.431,0 0,0 M 15.274,32.713 C 11.009,36.271 5.653,38.939 0,38.939 c -6.348,0 -12.299,-2.372 -16.862,-6.819 -4.463,-4.546 -6.943,-10.476 -6.943,-16.801 0,-6.325 2.48,-12.255 6.943,-16.801 4.563,-4.448 10.514,-6.82 16.862,-6.82 5.653,0 11.009,2.669 15.274,6.227 v -7.412 c 0,-8.401 -6.843,-15.418 -15.274,-15.418 -3.67,0.198 -7.736,1.779 -10.613,4.052 l -6.447,-5.633 c 1.289,-1.186 2.777,-2.372 4.265,-3.262 3.67,-2.174 8.034,-3.459 12.795,-3.459 6.348,0 12.299,2.472 16.762,6.919 4.563,4.447 7.042,10.475 7.042,16.801 v 47.438 h -8.53 z"
         style="fill:#ffffff;fill-opacity:1;fill-rule:nonzero;stroke:none"
         transform="matrix(1.3333333,0,0,-1.3333333,760.0032,701.7904)"
         clip-path="url(#clipPath52)" /><path
         id="path53"
         d="m 0,0 c -8.431,0 -15.274,6.819 -15.274,15.22 0,8.401 6.843,15.121 15.274,15.121 8.431,0 15.275,-6.72 15.275,-15.121 C 15.275,6.819 8.431,0 0,0 m 0,38.841 c -6.348,0 -12.299,-2.372 -16.861,-6.82 -4.464,-4.546 -6.943,-10.476 -6.943,-16.801 0,-6.324 2.479,-12.254 6.943,-16.801 4.562,-4.447 10.513,-6.918 16.861,-6.918 6.348,0 12.299,2.471 16.762,6.918 4.563,4.547 7.042,10.477 7.042,16.801 0,6.325 -2.479,12.255 -7.042,16.801 C 12.299,36.469 6.348,38.841 0,38.841"
         style="fill:#ffffff;fill-opacity:1;fill-rule:nonzero;stroke:none"
         transform="matrix(1.3333333,0,0,-1.3333333,833.95893,701.6588)"
         clip-path="url(#clipPath54)" /><path
         id="path55"
         d="M 0,0 H -8.529 V -45.265 H 0 v 24.115 c 0,7.61 6.546,13.639 14.481,13.639 l 2.083,8.499 C 11.308,0.988 2.877,-1.482 0,-4.645 Z"
         style="fill:#ffffff;fill-opacity:1;fill-rule:nonzero;stroke:none"
         transform="matrix(1.3333333,0,0,-1.3333333,889.13547,651.1888)"
         clip-path="url(#clipPath56)" /><path
         id="path57"
         d="m 693.148,490.344 h 8.53 v 45.265 h -8.53 z"
         style="fill:#ffffff;fill-opacity:1;fill-rule:nonzero;stroke:none"
         transform="matrix(1.3333333,0,0,-1.3333333,0,1365.3333)"
         clip-path="url(#clipPath58)" /><path
         id="path59"
         d="m 0,0 c -3.174,0 -5.653,-2.471 -5.653,-5.535 0,-3.063 2.479,-5.633 5.653,-5.633 3.075,0 5.555,2.57 5.555,5.633 C 5.555,-2.471 3.075,0 0,0"
         style="fill:#ffffff;fill-opacity:1;fill-rule:nonzero;stroke:none"
         transform="matrix(1.3333333,0,0,-1.3333333,929.88413,626.54747)"
         clip-path="url(#clipPath60)" /><path
         id="path61"
         d="M 0,0 C -3.571,0 -6.745,3.459 -6.745,7.115 V 29.056 H 7.24 V 37.16 H -6.745 v 17.493 h -8.529 V 37.16 h -6.746 v -8.104 h 6.746 V 6.918 c 0,-8.4 6.744,-15.022 15.076,-15.022 H 9.819 L 7.637,0 Z"
         style="fill:#ffffff;fill-opacity:1;fill-rule:nonzero;stroke:none"
         transform="matrix(1.3333333,0,0,-1.3333333,979.88667,700.73573)"
         clip-path="url(#clipPath62)" /><path
         id="path63"
         d="m 0,0 c -4.86,0 -9.522,-2.273 -13.391,-5.238 v 31.626 h -8.529 v -72.542 h 8.529 v 24.313 c 0,7.412 6.051,13.539 13.391,13.539 7.438,0 13.39,-6.127 13.39,-13.539 v -24.313 h 8.53 v 24.313 c 0,5.929 -2.281,11.365 -6.348,15.516 C 11.406,-2.174 5.852,0 0,0"
         style="fill:#ffffff;fill-opacity:1;fill-rule:nonzero;stroke:none"
         transform="matrix(1.3333333,0,0,-1.3333333,1031.4805,650.0032)"
         clip-path="url(#clipPath64)" /><path
         id="path65"
         d="m 0,0 c -5.853,0 -11.406,-2.569 -15.572,-6.72 -0.794,-0.791 -1.489,-1.582 -2.183,-2.471 -0.595,0.889 -1.289,1.68 -2.082,2.471 C -24.003,-2.569 -29.558,0 -35.409,0 -40.27,0 -44.932,-2.273 -48.8,-5.238 v 4.349 h -8.529 v -45.265 h 8.529 v 24.313 c 0,7.412 6.051,13.539 13.391,13.539 7.438,0 13.389,-6.127 13.389,-13.539 v -24.313 h 8.531 v 24.313 c 0,7.412 6.05,13.539 13.489,13.539 7.339,0 13.39,-6.127 13.39,-13.539 v -24.313 h 8.53 v 24.313 c 0,5.929 -2.281,11.365 -6.447,15.516 C 11.307,-2.174 5.852,0 0,0"
         style="fill:#ffffff;fill-opacity:1;fill-rule:nonzero;stroke:none"
         transform="matrix(1.3333333,0,0,-1.3333333,1149.3412,650.0032)"
         clip-path="url(#clipPath66)" /><path
         id="path67"
         d="m 0,0 c -8.431,0 -15.274,6.918 -15.274,15.319 0,8.4 6.843,15.319 15.274,15.319 8.431,0 15.274,-6.919 15.274,-15.319 C 15.274,6.918 8.431,0 0,0 M 15.274,37.951 V 32.713 C 11.01,36.271 5.653,38.939 0,38.939 c -6.348,0 -12.299,-2.372 -16.861,-6.819 -4.464,-4.546 -6.944,-10.476 -6.944,-16.801 0,-6.325 2.48,-12.255 6.944,-16.801 4.562,-4.448 10.513,-6.82 16.861,-6.82 5.653,0 11.01,2.669 15.274,6.227 v -5.238 h 8.531 v 45.264 z"
         style="fill:#ffffff;fill-opacity:1;fill-rule:nonzero;stroke:none"
         transform="matrix(1.3333333,0,0,-1.3333333,1220.6693,701.7904)"
         clip-path="url(#clipPath68)" /></g></g></svg>
